<svg xmlns="http://www.w3.org/2000/svg" width="1920" height="1085" viewBox="0 0 1920 1085" fill="none"><g clip-path="url(#clip0_6437_50425)"><rect width="1920" height="1085" fill="url(#paint0_linear_6437_50425)"></rect><g opacity="0.5" filter="url(#filter0_f_6437_50425)"><circle cx="1460" cy="712" r="460" fill="#127AFF"></circle></g><g opacity="0.5" filter="url(#filter1_f_6437_50425)"><circle cx="1798.5" cy="443.5" r="314.5" fill="#FF415C"></circle></g><g opacity="0.16"><path fill-rule="evenodd" clip-rule="evenodd" d="M2123.93 413.428L1625.04 456.449L1490.37 970.835L1218.64 970.835L1484.24 276.882L2281.56 177.746L2537.8 970.836L2247.37 970.835L2123.93 413.428ZM1792.82 593.171L1723.62 971.011L2014.05 971.011L1942.97 576.337L1792.82 593.171ZM1288.23 295.913L1106.28 323.97L732.196 971.161L987.089 971.161L1288.23 295.913Z" fill="url(#paint1_linear_6437_50425)"></path><path fill-rule="evenodd" clip-rule="evenodd" d="M2247.37 971.295L2105.22 1738.2L2281.56 1766.25L2537.8 971.295L2247.37 971.295ZM1552.09 1326.69L1490.36 971.301L1218.64 971.301L1343.95 1304.25L1552.09 1326.69ZM2014.05 971.306L1903.7 1721.37L1106.38 1620.37L732.301 971.305L987.193 971.305L1200.42 1431.45L1757.29 1480.08L1723.62 971.306L2014.05 971.306Z" fill="url(#paint2_linear_6437_50425)"></path></g></g><defs><filter id="filter0_f_6437_50425" x="500" y="-248" width="1920" height="1920" filterUnits="userSpaceOnUse" color-interpolation-filters="sRGB"><feGaussianBlur stdDeviation="135"></feGaussianBlur></filter><filter id="filter1_f_6437_50425" x="984" y="-371" width="1629" height="1629" filterUnits="userSpaceOnUse" color-interpolation-filters="sRGB"><feGaussianBlur stdDeviation="136"></feGaussianBlur></filter><linearGradient id="paint0_linear_6437_50425" x1="1920" y1="-32.8789" x2="-142.072" y2="665.528" gradientUnits="userSpaceOnUse"><stop stop-color="#02102C"></stop><stop offset="1" stop-color="#112244"></stop></linearGradient><linearGradient id="paint1_linear_6437_50425" x1="1279.7" y1="1295" x2="1611.58" y2="-297.881" gradientUnits="userSpaceOnUse"><stop stop-color="#112244"></stop><stop offset="0.0301665" stop-color="#112244"></stop><stop offset="0.998737" stop-color="#112244" stop-opacity="0"></stop></linearGradient><linearGradient id="paint2_linear_6437_50425" x1="1808.01" y1="1372.46" x2="1779.68" y2="941.66" gradientUnits="userSpaceOnUse"><stop offset="0.325638" stop-color="#112244"></stop><stop offset="1" stop-color="#112244" stop-opacity="0"></stop></linearGradient><clipPath id="clip0_6437_50425"><rect width="1920" height="1085" fill="white"></rect></clipPath></defs></svg>